<svg viewBox="0 0 240 240" xmlns="http://www.w3.org/2000/svg" role="img" aria-labelledby="catTitle">
  <title id="catTitle">Farebná mačka</title>
  <defs>
    <linearGradient id="catGradient" x1="0%" y1="0%" x2="100%" y2="100%">
      <stop offset="0%" stop-color="#f4d4b4"/>
      <stop offset="50%" stop-color="#d08b4c"/>
      <stop offset="100%" stop-color="#7a5d95"/>
    </linearGradient>
  </defs>
  <circle cx="120" cy="120" r="96" fill="url(#catGradient)" stroke="#2f2d38" stroke-width="8"/>
  <path d="M52 90 C40 38, 108 18, 116 80" fill="#7a5d95"/>
  <path d="M188 90 C200 38, 132 18, 124 80" fill="#f4d4b4"/>
  <ellipse cx="80" cy="132" rx="24" ry="32" fill="#2f2d38" opacity="0.18"/>
  <ellipse cx="160" cy="142" rx="18" ry="24" fill="#2f2d38" opacity="0.16"/>
  <circle cx="80" cy="118" r="18" fill="#fff"/>
  <circle cx="160" cy="118" r="18" fill="#fff"/>
  <circle cx="80" cy="122" r="8" fill="#2f2d38"/>
  <circle cx="160" cy="122" r="8" fill="#2f2d38"/>
  <path d="M110 138 Q120 152 130 138" stroke="#4a2d3e" stroke-width="6" fill="none" stroke-linecap="round"/>
  <ellipse cx="120" cy="148" rx="10" ry="6" fill="#d9597d"/>
  <path d="M56 76 C64 84, 84 80, 94 70" stroke="#4a2d3e" stroke-width="6" fill="none" stroke-linecap="round"/>
  <path d="M184 76 C176 84, 156 80, 146 70" stroke="#4a2d3e" stroke-width="6" fill="none" stroke-linecap="round"/>
</svg>
