<svg viewBox="0 0 240 240" xmlns="http://www.w3.org/2000/svg" role="img" aria-labelledby="fortuneTitle">
  <title id="fortuneTitle">Magická veštidlová guľa</title>
  <defs>
    <radialGradient id="ballGlow" cx="50%" cy="40%" r="65%">
      <stop offset="0%" stop-color="#ffffff"/>
      <stop offset="60%" stop-color="#d4b2ff"/>
      <stop offset="100%" stop-color="#7a5d95"/>
    </radialGradient>
  </defs>
  <rect x="26" y="120" width="188" height="84" rx="32" fill="#2f2d38" opacity="0.16"/>
  <ellipse cx="120" cy="174" rx="106" ry="24" fill="#2f2d38" opacity="0.2"/>
  <circle cx="120" cy="104" r="74" fill="url(#ballGlow)" stroke="#2f2d38" stroke-width="10"/>
  <circle cx="120" cy="82" r="10" fill="#ffffff" opacity="0.9"/>
  <circle cx="160" cy="90" r="6" fill="#f4d4b4" opacity="0.8"/>
  <circle cx="90" cy="64" r="8" fill="#ffffff" opacity="0.8"/>
  <path d="M100 106 C110 92, 130 88, 140 102" stroke="#2f2d38" stroke-width="4" fill="none" stroke-linecap="round"/>
  <path d="M104 124 C106 118, 114 116, 118 120" stroke="#2f2d38" stroke-width="4" fill="none" stroke-linecap="round"/>
  <path d="M76 106 C76 98, 82 92, 88 96" stroke="#2f2d38" stroke-width="3" fill="none" stroke-linecap="round"/>
  <path d="M164 120 C166 110, 176 108, 178 118" stroke="#2f2d38" stroke-width="3" fill="none" stroke-linecap="round"/>
  <path d="M68 132 C72 126, 82 126, 86 132" stroke="#4a2d3e" stroke-width="5" fill="none" stroke-linecap="round"/>
  <path d="M154 134 C158 128, 168 128, 172 134" stroke="#4a2d3e" stroke-width="5" fill="none" stroke-linecap="round"/>
  <path d="M54 162 L186 162" stroke="#2f2d38" stroke-width="18" stroke-linecap="round" opacity="0.22"/>
  <path d="M74 142 C88 132, 108 132, 122 142" stroke="#f4d4b4" stroke-width="8" fill="none" opacity="0.5"/>
</svg>
